ModelForces
version=1
nRows=4
nColumns=206
inDegrees=no

This file contains the forces exerted on a model during a simulation.

A force is a generalized force, meaning that it can be either a force (N) or a torque (Nm).

Units are S.I. units (second, meters, Newtons, ...)
Angles are in degrees.

endheader
time	glut_med1_r	glut_med2_r	glut_med3_r	glut_min1_r	glut_min2_r	glut_min3_r	semimem_r	semiten_r	bifemlh_r	bifemsh_r	sar_r	add_long_r	add_brev_r	add_mag1_r	add_mag2_r	add_mag3_r	tfl_r	pect_r	grac_r	glut_max1_r	glut_max2_r	glut_max3_r	iliacus_r	psoas_r	quad_fem_r	gem_r	peri_r	rect_fem_r	vas_med_r	vas_int_r	vas_lat_r	med_gas_r	lat_gas_r	soleus_r	tib_post_r	flex_dig_r	flex_hal_r	tib_ant_r	per_brev_r	per_long_r	per_tert_r	ext_dig_r	ext_hal_r	glut_med1_l	glut_med2_l	glut_med3_l	glut_min1_l	glut_min2_l	glut_min3_l	semimem_l	semiten_l	bifemlh_l	bifemsh_l	sar_l	add_long_l	add_brev_l	add_mag1_l	add_mag2_l	add_mag3_l	tfl_l	pect_l	grac_l	glut_max1_l	glut_max2_l	glut_max3_l	iliacus_l	psoas_l	quad_fem_l	gem_l	peri_l	rect_fem_l	vas_med_l	vas_int_l	vas_lat_l	med_gas_l	lat_gas_l	soleus_l	tib_post_l	flex_dig_l	flex_hal_l	tib_ant_l	per_brev_l	per_long_l	per_tert_l	ext_dig_l	ext_hal_l	ercspn_r	ercspn_l	intobl_r	intobl_l	extobl_r	extobl_l	femur_lat_meniscii_l.femur_lat_l.force.X	femur_lat_meniscii_l.femur_lat_l.force.Y	femur_lat_meniscii_l.femur_lat_l.force.Z	femur_lat_meniscii_l.femur_lat_l.torque.X	femur_lat_meniscii_l.femur_lat_l.torque.Y	femur_lat_meniscii_l.femur_lat_l.torque.Z	femur_lat_meniscii_l.meniscus_lat_l.force.X	femur_lat_meniscii_l.meniscus_lat_l.force.Y	femur_lat_meniscii_l.meniscus_lat_l.force.Z	femur_lat_meniscii_l.meniscus_lat_l.torque.X	femur_lat_meniscii_l.meniscus_lat_l.torque.Y	femur_lat_meniscii_l.meniscus_lat_l.torque.Z	femur_med_meniscii_l.femur_med_l.force.X	femur_med_meniscii_l.femur_med_l.force.Y	femur_med_meniscii_l.femur_med_l.force.Z	femur_med_meniscii_l.femur_med_l.torque.X	femur_med_meniscii_l.femur_med_l.torque.Y	femur_med_meniscii_l.femur_med_l.torque.Z	femur_med_meniscii_l.meniscus_med_l.force.X	femur_med_meniscii_l.meniscus_med_l.force.Y	femur_med_meniscii_l.meniscus_med_l.force.Z	femur_med_meniscii_l.meniscus_med_l.torque.X	femur_med_meniscii_l.meniscus_med_l.torque.Y	femur_med_meniscii_l.meniscus_med_l.torque.Z	femur_lat_meniscii_r.femur_lat_r.force.X	femur_lat_meniscii_r.femur_lat_r.force.Y	femur_lat_meniscii_r.femur_lat_r.force.Z	femur_lat_meniscii_r.femur_lat_r.torque.X	femur_lat_meniscii_r.femur_lat_r.torque.Y	femur_lat_meniscii_r.femur_lat_r.torque.Z	femur_lat_meniscii_r.meniscus_lat_r.force.X	femur_lat_meniscii_r.meniscus_lat_r.force.Y	femur_lat_meniscii_r.meniscus_lat_r.force.Z	femur_lat_meniscii_r.meniscus_lat_r.torque.X	femur_lat_meniscii_r.meniscus_lat_r.torque.Y	femur_lat_meniscii_r.meniscus_lat_r.torque.Z	femur_med_meniscii_r.femur_med_r.force.X	femur_med_meniscii_r.femur_med_r.force.Y	femur_med_meniscii_r.femur_med_r.force.Z	femur_med_meniscii_r.femur_med_r.torque.X	femur_med_meniscii_r.femur_med_r.torque.Y	femur_med_meniscii_r.femur_med_r.torque.Z	femur_med_meniscii_r.meniscus_med_r.force.X	femur_med_meniscii_r.meniscus_med_r.force.Y	femur_med_meniscii_r.meniscus_med_r.force.Z	femur_med_meniscii_r.meniscus_med_r.torque.X	femur_med_meniscii_r.meniscus_med_r.torque.Y	femur_med_meniscii_r.meniscus_med_r.torque.Z	femur_med_tibia_l.tibia_upper_l.force.X	femur_med_tibia_l.tibia_upper_l.force.Y	femur_med_tibia_l.tibia_upper_l.force.Z	femur_med_tibia_l.tibia_upper_l.torque.X	femur_med_tibia_l.tibia_upper_l.torque.Y	femur_med_tibia_l.tibia_upper_l.torque.Z	femur_med_tibia_l.femur_med_l.force.X	femur_med_tibia_l.femur_med_l.force.Y	femur_med_tibia_l.femur_med_l.force.Z	femur_med_tibia_l.femur_med_l.torque.X	femur_med_tibia_l.femur_med_l.torque.Y	femur_med_tibia_l.femur_med_l.torque.Z	femur_lat_tibia_l.tibia_upper_l.force.X	femur_lat_tibia_l.tibia_upper_l.force.Y	femur_lat_tibia_l.tibia_upper_l.force.Z	femur_lat_tibia_l.tibia_upper_l.torque.X	femur_lat_tibia_l.tibia_upper_l.torque.Y	femur_lat_tibia_l.tibia_upper_l.torque.Z	femur_lat_tibia_l.femur_lat_l.force.X	femur_lat_tibia_l.femur_lat_l.force.Y	femur_lat_tibia_l.femur_lat_l.force.Z	femur_lat_tibia_l.femur_lat_l.torque.X	femur_lat_tibia_l.femur_lat_l.torque.Y	femur_lat_tibia_l.femur_lat_l.torque.Z	femur_med_tibia_r.tibia_upper_r.force.X	femur_med_tibia_r.tibia_upper_r.force.Y	femur_med_tibia_r.tibia_upper_r.force.Z	femur_med_tibia_r.tibia_upper_r.torque.X	femur_med_tibia_r.tibia_upper_r.torque.Y	femur_med_tibia_r.tibia_upper_r.torque.Z	femur_med_tibia_r.femur_med_r.force.X	femur_med_tibia_r.femur_med_r.force.Y	femur_med_tibia_r.femur_med_r.force.Z	femur_med_tibia_r.femur_med_r.torque.X	femur_med_tibia_r.femur_med_r.torque.Y	femur_med_tibia_r.femur_med_r.torque.Z	femur_lat_tibia_r.tibia_upper_r.force.X	femur_lat_tibia_r.tibia_upper_r.force.Y	femur_lat_tibia_r.tibia_upper_r.force.Z	femur_lat_tibia_r.tibia_upper_r.torque.X	femur_lat_tibia_r.tibia_upper_r.torque.Y	femur_lat_tibia_r.tibia_upper_r.torque.Z	femur_lat_tibia_r.femur_lat_r.force.X	femur_lat_tibia_r.femur_lat_r.force.Y	femur_lat_tibia_r.femur_lat_r.force.Z	femur_lat_tibia_r.femur_lat_r.torque.X	femur_lat_tibia_r.femur_lat_r.torque.Y	femur_lat_tibia_r.femur_lat_r.torque.Z	aACL_R	pACL_R	aPCL_R	pPCL_R	aMCL_R	mMCL_R	pMCL_R	aLCL_R	mLCL_R	pLCL_R	aPCL_L	pPCL_L	aMCL_L	aLCL_L	ground_prescribedForce_-40_fx	ground_prescribedForce_-40_fy	ground_prescribedForce_-40_fz
      0.18744706	     10.44698620	      7.64810660	      8.21721558	      3.54400403	      4.14090592	      4.41579873	      4.99776083	      6.08106946	      7.80088823	      8.59583139	      2.20506889	      7.60409810	      5.50487255	      3.93280399	      3.32970533	      5.57325394	      4.89090745	      2.98965421	      2.24981121	      4.93677366	      7.50853958	      5.63465050	     26.26419757	     17.06672802	      4.86446964	      3.44467209	      6.19552428	     24.57216065	     19.74786962	     20.51545859	     27.40534116	      2.64320053	      1.30687359	     11.78751122	     15.33335921	      1.37739057	      3.14478062	     18.21520947	      4.49915531	     12.20093231	      7.60825362	     10.57889949	      3.42129141	     10.44698620	      7.64810660	      8.21721558	      3.54400403	      4.14090592	      4.41579873	     12.83860094	      5.63532430	     11.13352361	      9.68119385	      2.02291843	      7.60409810	      5.50487255	      3.93280399	      3.32970533	      5.57325394	      5.07957887	      2.98965421	      2.08523424	      4.93677366	      7.50853958	      5.63465050	     26.26419757	     17.06672802	      4.86446964	      3.44467209	      6.19552428	     15.38177290	      8.96873585	     10.34656966	     11.11330941	     22.02347126	     10.23211102	     47.11729645	     48.96535515	      4.45625853	      4.50797543	     12.03053451	      6.40231844	     16.97726816	      2.63950519	      8.00720328	      2.51348770	     33.35230192	     33.35230192	     12.30770363	     12.30770363	     29.78237438	     29.78237438	      2.76307435	     50.99597937	     -9.56042239	      5.21997485	     -0.02578839	      1.48581788	     -2.76307435	    -50.99597937	      9.56042239	     -1.74637766	      0.02558040	     -0.48301696	     -3.31599387	     20.97615968	     -3.40468921	      0.94473225	     -0.02138609	     -1.00501789	      3.31599387	    -20.97615968	      3.40468921	      0.28075727	      0.00368718	     -0.29758878	    128.28479593	     96.15449300	     28.58492961	    -14.06861321	      3.10702716	     52.73628984	   -128.28479593	    -96.15449300	    -28.58492961	      3.38285061	     -3.96308132	     -1.90061006	    235.56339826	     68.95865453	    -27.28562590	     12.52388567	     -4.69967949	     96.06833073	   -235.56339826	    -68.95865453	     27.28562590	     -1.78122421	      4.30828057	     -4.31351791	      0.00000000	      0.00000000	      0.00000000	      0.00000000	      0.00000000	      0.00000000	      0.00000000	      0.00000000	      0.00000000	      0.00000000	      0.00000000	      0.00000000	      0.00000000	      0.00000000	      0.00000000	      0.00000000	      0.00000000	      0.00000000	      0.00000000	      0.00000000	      0.00000000	      0.00000000	      0.00000000	      0.00000000	    -10.61994521	    -13.11367121	      8.52252468	     -0.41934861	      0.24684211	     -0.14235447	     10.61994521	     13.11367121	     -8.52252468	      3.74632298	     -0.15657227	      4.42700671	      0.00000000	      0.00000000	      0.00000000	      0.00000000	      0.00000000	      0.00000000	      0.00000000	      0.00000000	      0.00000000	      0.00000000	      0.00000000	      0.00000000	      0.00000000	      0.00000000	    212.07036781	    115.32967281	      0.00000000	      8.99495316	      0.00000000	     -7.33015327	      0.00000000	      0.00000000	      0.00000000	      0.00000000	      0.00000001	      0.00000000	     84.26488000	    -70.70660000	      0.00000000
      0.19095537	     10.31589912	      7.55890193	      8.12020563	      3.50438405	      4.09766489	      4.36051659	      4.91900836	      5.98208426	      7.72775138	      8.45553924	      2.16955308	      7.51437384	      5.44390782	      3.88716717	      3.29015652	      5.50152084	      4.85035385	      2.95599829	      2.20762212	      4.87902934	      7.42049661	      5.56749864	     26.10049877	     16.88026680	      4.80889877	      3.41775828	      6.10517086	     24.36471864	     19.37048108	     20.13604013	     26.95278517	      2.54273449	      1.27567107	     11.54576067	     16.03883093	      1.38657959	      2.96636715	     18.07943879	      4.22137038	     11.50359002	      7.53679142	     10.82823018	      3.37890375	     10.31589912	      7.55890193	      8.12020563	      3.50438405	      4.09766489	      4.36051659	     12.65774109	      5.56516505	     10.97977101	      9.57048498	      2.00040905	      7.51437384	      5.44390782	      3.88716717	      3.29015652	      5.50152084	      5.03511000	      2.95599829	      2.06162287	      4.87902934	      7.42049661	      5.56749864	     26.10049877	     16.88026680	      4.80889877	      3.41775828	      6.10517086	     15.17114359	      8.86115782	     10.22034215	     10.97795614	     21.69344434	     10.07850789	     46.42816348	     48.67219038	      4.38083412	      4.43693755	     11.86965416	      6.31123861	     16.78312472	      2.61075573	      7.88827945	      2.47644293	     32.97859779	     32.97859779	     12.15835657	     12.15835657	     29.64746149	     29.64746149	      2.76307435	     50.99597937	     -9.56042239	      5.21997485	     -0.02578839	      1.48581788	     -2.76307435	    -50.99597937	      9.56042239	     -1.74637766	      0.02558040	     -0.48301696	     -3.31599387	     20.97615968	     -3.40468921	      0.94473225	     -0.02138609	     -1.00501789	      3.31599387	    -20.97615968	      3.40468921	      0.28075727	      0.00368718	     -0.29758878	    129.72207425	    100.35706501	     29.14225806	    -14.39307037	      3.15558589	     53.31324988	   -129.72207425	   -100.35706501	    -29.14225806	      3.51175314	     -4.03298045	     -1.85533671	    233.82790682	     69.45856651	    -27.67346850	     12.68199172	     -4.63987712	     95.35158300	   -233.82790682	    -69.45856651	     27.67346850	     -1.78339306	      4.24722385	     -4.24903911	      0.00000000	      0.00000000	      0.00000000	      0.00000000	      0.00000000	      0.00000000	      0.00000000	      0.00000000	      0.00000000	      0.00000000	      0.00000000	      0.00000000	      0.00000000	      0.00000000	      0.00000000	      0.00000000	      0.00000000	      0.00000000	      0.00000000	      0.00000000	      0.00000000	      0.00000000	      0.00000000	      0.00000000	     -9.49411216	    -11.82913125	      7.59787465	     -0.37417043	      0.21972610	     -0.12506379	      9.49411216	     11.82913125	     -7.59787465	      3.34156687	     -0.13969929	      3.95764114	      0.00000000	      0.00000000	      0.00000000	      0.00000000	      0.00000000	      0.00000000	      0.00000000	      0.00000000	      0.00000000	      0.00000000	      0.00000000	      0.00000000	      0.00000000	      0.00000000	    209.75375159	    113.72664226	      0.00000000	      8.29899820	      0.00000000	     -6.98296652	      0.00000000	      0.00000000	      0.00000000	      0.00000000	      0.00000001	      0.00000000	     84.26488000	    -70.70660000	      0.00000000
      0.19446369	     10.19082606	      7.47376604	      8.02763112	      3.46655552	      4.05639343	      4.30776950	      4.89509911	      5.92078923	      7.70473545	      8.48306976	      2.14804108	      7.42875199	      5.38568624	      3.84361352	      3.25242146	      5.43307695	      4.82278302	      2.92386763	      2.18929613	      4.82392861	      7.33648437	      5.50342643	     25.94434749	     16.70244338	      4.75585339	      3.39209784	      6.01871140	     24.25723685	     19.23698670	     19.99972744	     26.78235347	      2.48984256	      1.26804148	     11.35598638	     16.75061604	      1.43962782	      2.84750880	     17.92570787	      3.96539959	     10.85545646	      7.46306112	     10.57213123	      3.31882392	     10.19082606	      7.47376604	      8.02763112	      3.46655552	      4.05639343	      4.30776950	     12.48489158	      5.49822427	     10.83290962	      9.46481034	      1.97891579	      7.42875199	      5.38568624	      3.84361352	      3.25242146	      5.43307695	      4.99268274	      2.92386763	      2.03908250	      4.82392861	      7.33648437	      5.50342643	     25.94434749	     16.70244338	      4.75585339	      3.39209784	      6.01871140	     14.96999064	      8.75853819	     10.09994114	     10.84886702	     21.37709428	      9.93128161	     45.76878421	     48.39227532	      4.30885447	      4.36921432	     11.71607613	      6.22419183	     16.59746597	      2.58333452	      7.77417091	      2.44090779	     32.62180080	     32.62180080	     12.01585404	     12.01585404	     29.51878318	     29.51878318	      2.76307435	     50.99597937	     -9.56042239	      5.21997485	     -0.02578839	      1.48581788	     -2.76307435	    -50.99597937	      9.56042239	     -1.74637766	      0.02558040	     -0.48301696	     -3.31599387	     20.97615968	     -3.40468921	      0.94473225	     -0.02138609	     -1.00501789	      3.31599387	    -20.97615968	      3.40468921	      0.28075727	      0.00368718	     -0.29758878	    129.26107890	    101.58532761	     29.80002113	    -14.69643926	      3.15296986	     53.12056227	   -129.26107890	   -101.58532761	    -29.80002113	      3.57066566	     -4.04658704	     -1.81496469	    233.49143828	     68.98463358	    -28.92365865	     13.16496057	     -4.62116139	     95.22443860	   -233.49143828	    -68.98463358	     28.92365865	     -1.78152019	      4.23577686	     -4.24873292	      0.00000000	      0.00000000	      0.00000000	      0.00000000	      0.00000000	      0.00000000	      0.00000000	      0.00000000	      0.00000000	      0.00000000	      0.00000000	      0.00000000	      0.00000000	      0.00000000	      0.00000000	      0.00000000	      0.00000000	      0.00000000	      0.00000000	      0.00000000	      0.00000000	      0.00000000	      0.00000000	      0.00000000	     -8.34004687	    -10.16855872	      6.65101423	     -0.32506521	      0.19208922	     -0.11352106	      8.34004687	     10.16855872	     -6.65101423	      2.92282124	     -0.12243426	      3.47747381	      0.00000000	      0.00000000	      0.00000000	      0.00000000	      0.00000000	      0.00000000	      0.00000000	      0.00000000	      0.00000000	      0.00000000	      0.00000000	      0.00000000	      0.00000000	      0.00000000	    207.30525704	    111.49245474	      0.00000000	      8.24093757	      0.00000000	     -6.41762804	      0.00000000	      0.00000000	      0.00000000	      0.00000000	      0.00000001	      0.00000000	     84.26488000	    -70.70660000	      0.00000000
      0.19797200	     10.07148510	      7.39250892	      7.93928426	      3.43043620	      4.01699966	      4.25743867	      4.90104658	      5.88679177	      7.73196825	      8.57636175	      2.13259564	      7.34704038	      5.33009006	      3.80204558	      3.21641477	      5.36776854	      4.80485795	      2.89319170	      2.17727402	      4.77134722	      7.25631347	      5.44228896	     25.79538461	     16.53284677	      4.70521614	      3.36763052	      5.93597439	     24.24224661	     19.21180995	     19.99480139	     26.80107241	      2.44673350	      1.26766423	     11.19244242	     17.44559782	      1.53095025	      2.78229985	     17.76923157	      3.73737369	     10.26662949	      7.39847327	     10.32995584	      3.26074163	     10.07148510	      7.39250892	      7.93928426	      3.43043620	      4.01699966	      4.25743867	     12.31969459	      5.43435096	     10.69262679	      9.36393576	      1.95839259	      7.34704038	      5.33009006	      3.80204558	      3.21641477	      5.36776854	      4.95220121	      2.89319170	      2.01756351	      4.77134722	      7.25631347	      5.44228896	     25.79538461	     16.53284677	      4.70521614	      3.36763052	      5.93597439	     14.77788201	      8.66064164	      9.98509005	     10.72574318	     21.07383092	      9.79015609	     45.13784629	     48.12498828	      4.24017124	      4.30465651	     11.56946396	      6.14099640	     16.41990332	      2.55717846	      7.66467982	      2.40682131	     32.28113287	     32.28113287	     11.87987481	     11.87987481	     29.39604130	     29.39604130	      2.76307435	     50.99597937	     -9.56042239	      5.21997485	     -0.02578839	      1.48581788	     -2.76307435	    -50.99597937	      9.56042239	     -1.74637766	      0.02558040	     -0.48301696	     -3.31599387	     20.97615968	     -3.40468921	      0.94473225	     -0.02138609	     -1.00501789	      3.31599387	    -20.97615968	      3.40468921	      0.28075727	      0.00368718	     -0.29758878	    132.24943993	    102.59604062	     30.10360819	    -14.84716827	      3.22745913	     54.37097860	   -132.24943993	   -102.59604062	    -30.10360819	      3.61244673	     -4.14417880	     -1.89097590	    232.14129682	     67.68402586	    -29.21426973	     13.25352564	     -4.57242718	     94.68703661	   -232.14129682	    -67.68402586	     29.21426973	     -1.75775865	      4.18404175	     -4.23963566	      0.00000000	      0.00000000	      0.00000000	      0.00000000	      0.00000000	      0.00000000	      0.00000000	      0.00000000	      0.00000000	      0.00000000	      0.00000000	      0.00000000	      0.00000000	      0.00000000	      0.00000000	      0.00000000	      0.00000000	      0.00000000	      0.00000000	      0.00000000	      0.00000000	      0.00000000	      0.00000000	      0.00000000	     -6.91502210	     -8.41072623	      5.48551998	     -0.26764332	      0.15829218	     -0.09431251	      6.91502210	      8.41072623	     -5.48551998	      2.41094797	     -0.10119912	      2.88369132	      0.00000000	      0.00000000	      0.00000000	      0.00000000	      0.00000000	      0.00000000	      0.00000000	      0.00000000	      0.00000000	      0.00000000	      0.00000000	      0.00000000	      0.00000000	      0.00000000	    205.68931109	    111.43831519	      0.00000000	      9.04611925	      0.00000000	     -4.33394386	      0.00000000	      0.00000000	      0.00000000	      0.00000000	      0.00000001	      0.00000000	     84.26488000	    -70.70660000	      0.00000000
